<?xml version="1.0" encoding="UTF-8"?>
<svg width="339px" height="40px" viewBox="0 0 339 40" version="1.1" xmlns="http://www.w3.org/2000/svg" xmlns:xlink="http://www.w3.org/1999/xlink">
    <!-- Generator: Sketch 62 (91390) - https://sketch.com -->
    <title>sourcebit-logo-final</title>
    <desc>Created with Sketch.</desc>
    <g id="sourcebit-logo-final" stroke="none" stroke-width="1" fill="none" fill-rule="evenodd">
        <polygon id="t" fill="#031E34" fill-rule="nonzero" points="327.170358 39 327.170358 8.02115656 339 8.02115656 339 1 308 1 308 8.02115656 319.829642 8.02115656 319.829642 39"></polygon>
        <polygon id="i" fill="#031E34" fill-rule="nonzero" points="303 39 303 1 296 1 296 39"></polygon>
        <path d="M279.965517,1 C287.523327,1 291.795132,5.34132581 291.795132,11.2369535 C291.795132,15.1495063 289.385396,18.3117066 286.154158,19.3836389 C289.933063,20.2947814 293,23.6713681 293,28.3878702 C293,34.551481 288.290061,39 281.006085,39 L281.006085,39 L266,39 L266,1 Z M279.691684,22.8138223 L273.448276,22.8138223 L273.448276,32.8363893 L279.58215,32.8363893 C283.251521,32.8363893 285.442191,30.9605078 285.442191,27.9055007 C285.442191,24.9040903 283.470588,22.8138223 279.691684,22.8138223 L279.691684,22.8138223 Z M278.760649,7.21720733 L273.448276,7.21720733 L273.448276,16.7038082 L278.815416,16.7038082 C282.26572,16.7038082 284.346856,14.8279267 284.346856,11.9337094 C284.346856,9.03949224 282.43002,7.21720733 278.760649,7.21720733 L278.760649,7.21720733 Z" id="b" fill="#031E34" fill-rule="nonzero"></path>
        <polygon id="e" fill="#031E34" fill-rule="nonzero" points="261 39 261 32.0324401 244.459459 32.0324401 244.459459 23.2425952 259.432432 23.2425952 259.432432 16.6502116 244.459459 16.6502116 244.459459 7.96755994 261 7.96755994 261 1 237 1 237 39"></polygon>
        <path d="M215.437048,40 C226.092619,40 231.554269,32.8552097 233,26.9553451 L226.092619,24.8443843 C225.075253,28.4167794 221.916064,32.6928281 215.437048,32.6928281 C209.332851,32.6928281 203.657019,28.2002706 203.657019,20.0270636 C203.657019,11.3125846 209.654124,7.19891746 215.329957,7.19891746 C221.916064,7.19891746 224.861071,11.2584574 225.771346,14.9391069 L232.732272,12.7198917 C231.232996,6.49526387 225.824891,0 215.329957,0 C205.156295,0 196,7.79431664 196,20.0270636 C196,32.2598106 204.835022,40 215.437048,40 Z" id="Path" fill="#031E34" fill-rule="nonzero"></path>
        <path d="M180.839286,1 C188.232143,1 192.946429,6.09167842 192.946429,12.6840621 C192.946429,17.9901269 189.839286,22.0098731 184.857143,23.4569817 L184.857143,23.4569817 L193,39 L184.75,39 L177.303571,24.3681241 L173.446429,24.3681241 L173.446429,39 L166,39 L166,1 Z M179.446429,7.43159379 L173.446429,7.43159379 L173.446429,17.9901269 L179.446429,17.9901269 C183.196429,17.9901269 185.392857,15.8462623 185.392857,12.7376587 C185.392857,9.52186178 183.196429,7.43159379 179.446429,7.43159379 L179.446429,7.43159379 Z" id="r" fill="#031E34" fill-rule="nonzero"></path>
        <path d="M146.473394,40 C154.561468,40 161,34.9972414 161,25.6372414 L161,1 L153.656881,1 L153.656881,25.0993103 C153.656881,30.102069 150.943119,32.737931 146.473394,32.737931 C142.110092,32.737931 139.343119,30.102069 139.343119,25.0993103 L139.343119,1 L132,1 L132,25.6372414 C132,34.9972414 138.438532,40 146.473394,40 Z" id="u" fill="#031E34" fill-rule="nonzero"></path>
        <path d="M108.473251,4.61852778e-14 C118.798354,4.61852778e-14 128,7.63193505 128,20.0270636 C128,32.368065 118.798354,40 108.473251,40 C98.2016461,40 89,32.368065 89,20.0270636 C89,7.63193505 98.2016461,4.61852778e-14 108.473251,4.61852778e-14 Z M108.473251,7.19891746 C102.641975,7.19891746 96.6502058,11.3125846 96.6502058,19.9729364 C96.6502058,28.6332882 102.641975,32.7469553 108.473251,32.7469553 C114.358025,32.7469553 120.349794,28.6332882 120.349794,19.9729364 C120.349794,11.3125846 114.358025,7.19891746 108.473251,7.19891746 Z" id="o" fill="#031E34" fill-rule="nonzero"></path>
        <path d="M72.2007435,40 C81.0947955,40 86,34.0460081 86,28.1461434 C86,22.7334235 82.2806691,18.1867388 75.3271375,16.8335589 L69.9907063,15.8051421 C67.1877323,15.2638701 65.8401487,13.5859269 65.8401487,11.4749662 C65.8401487,8.93098782 68.2118959,6.60351827 71.8234201,6.60351827 C76.6747212,6.60351827 78.3996283,9.9052774 78.7769517,12.0162382 L85.4609665,9.9594046 C84.598513,5.62922869 81.0408922,0 71.7695167,0 C64.5464684,0 58.4553903,5.1962111 58.4553903,12.0162382 C58.4553903,17.8078484 62.3903346,21.759134 68.4814126,23.0040595 L73.8178439,24.0866035 C76.7825279,24.6820027 78.4535316,26.4140731 78.4535316,28.6332882 C78.4535316,31.3396482 76.2434944,33.3423545 72.2546468,33.3423545 C66.8643123,33.3423545 64.2230483,29.932341 63.8996283,26.1434371 L57,27.9837618 C57.5929368,33.4506089 62.0669145,40 72.2007435,40 Z" id="s" fill="#031E34" fill-rule="nonzero"></path>
        <path d="M19.2824086,0 C17.8499693,0 16.6887477,1.17967632 16.6887477,2.6348808 L16.6887477,4.16562112 C16.6887477,5.62082561 17.8499693,6.80050192 19.2824086,6.80050192 L30.7292715,6.80010037 L30.7288696,6.8208281 L33.8503962,6.82093564 C34.9814652,6.82093564 35.9048674,7.72419351 35.9597925,8.85939706 L35.9623772,8.96648144 C35.9623772,10.0511462 35.1700926,10.947822 34.1413669,11.0918315 L2.59366088,11.0915935 C1.16122153,11.0915935 0,12.2712698 0,13.7264743 L0,15.2572146 C0,16.7124191 1.16122153,17.8920954 2.59366088,17.8920954 L22.6567614,17.8918946 L22.6562427,17.9124216 L23.448412,17.9125291 C24.579481,17.9125291 25.5028831,18.815787 25.5578083,19.9509905 L25.560393,20.0580749 C25.560393,21.1440091 24.7662527,22.0415141 23.7357697,22.1839275 L9.33717915,22.1831869 C7.90473981,22.1831869 6.74351828,23.3628632 6.74351828,24.8180677 L6.74351828,26.348808 C6.74351828,27.8040125 7.90473981,28.9836888 9.33717915,28.9836888 L32.1898862,28.9833767 C33.1109954,29.1825164 33.8099553,29.9916889 33.8575231,30.9748299 L33.8601078,31.0819143 C33.8601078,32.1493841 33.0927438,33.034778 32.0878415,33.1998503 L24.4697304,33.1994981 C23.037291,33.1994981 21.8760695,34.3791744 21.8760695,35.8343789 L21.8760695,37.3651192 C21.8760695,38.8203237 23.037291,40 24.4697304,40 L50.4063391,40 C51.8387785,40 53,38.8203237 53,37.3651192 L53,35.8343789 C53,34.3791744 51.8387785,33.1994981 50.4063391,33.1994981 L38.9133919,33.1998503 C37.9422925,33.0403307 37.1930197,32.2081349 37.1437103,31.1889987 L37.1411256,31.0819143 C37.1411256,30.0509325 37.8569264,29.189792 38.8111976,28.983409 L43.5735027,28.9836888 C45.0059421,28.9836888 46.1671636,27.8040125 46.1671636,26.348808 L46.1671636,24.8180677 C46.1671636,23.3628632 45.0059421,22.1831869 43.5735027,22.1831869 L30.666034,22.1839275 C29.6696251,22.0462231 28.8941875,21.2025375 28.8439955,20.1651593 L28.8414108,20.0580749 C28.8414108,18.9090303 29.7305381,17.9709529 30.8479826,17.9151549 L30.9533918,17.9125291 L35.363106,17.9124216 L35.3636248,17.8918946 L47.2939461,17.8920954 C48.7263854,17.8920954 49.8876069,16.7124191 49.8876069,15.2572146 L49.8876069,13.7264743 C49.8876069,12.2712698 48.7263854,11.0915935 47.2939461,11.0915935 L41.1301452,11.0918315 C40.1354753,10.9525894 39.3618509,10.1096899 39.3117196,9.07356581 L39.3091349,8.96648144 C39.3091349,7.81743686 40.1982623,6.87935946 41.3157068,6.82356142 L41.4211159,6.82093564 L42.6597096,6.8208281 L42.6601116,6.80010037 L50.4063391,6.80050192 C51.8387785,6.80050192 53,5.62082561 53,4.16562112 L53,2.6348808 C53,1.17967632 51.8387785,0 50.4063391,0 L19.2824086,0 Z" id="sourcebit-symbol" fill="#14C474"></path>
    </g>
</svg>